<svg width="47" height="46" viewBox="0 0 47 46" fill="none" xmlns="http://www.w3.org/2000/svg">
<path d="M13.6865 38.7843H17.7383C17.7383 38.7843 22.3636 40.5724 25.4741 40.7207C32.3323 41.0477 37.7803 37.8531 42.1929 32.9941C43.2006 31.8845 43.1836 30.2092 42.2479 29.0381C41.0417 27.5283 38.7744 27.4062 37.2619 28.6081C35.5954 29.9323 33.3834 31.4219 31.2759 32.007C28.3647 32.815 25.4741 32.9752 25.4741 32.9752C40.9455 32.0069 34.9597 21.3925 13.6865 27.0563M27.4783 7.96828C26.6217 5.61207 24.3624 3.9292 21.7101 3.9292C18.3215 3.9292 15.5744 6.67627 15.5744 10.065C15.5744 13.4536 18.3215 16.2007 21.7101 16.2007C22.3304 16.2007 22.9292 16.1087 23.4936 15.9375M27.4783 7.96828C24.9595 8.73226 23.1261 11.0724 23.1261 13.8408C23.1261 14.5772 23.2558 15.2833 23.4936 15.9375M27.4783 7.96828C28.0427 7.79709 28.6415 7.70505 29.2618 7.70505C32.6505 7.70505 35.3976 10.4521 35.3976 13.8408C35.3976 17.2295 32.6505 19.9765 29.2618 19.9765C26.6095 19.9765 24.3503 18.2937 23.4936 15.9375M6.13477 24.6964H13.6865V40.7437H6.13477V24.6964Z" stroke="#F8FAF4" stroke-width="2.83189" stroke-linecap="round" stroke-linejoin="round"/>
</svg>
