<svg width="34" height="31" viewBox="0 0 34 31" fill="none" xmlns="http://www.w3.org/2000/svg">
<path d="M32.5267 8.54496L27.3878 1.87549H6.83225L1.69336 8.54496M32.5267 8.54496V10.2123C32.5267 11.6938 31.8651 13.0248 30.8137 13.9407M32.5267 8.54496H1.69336M1.69336 8.54496V10.2123C1.69336 11.6938 2.35499 13.0248 3.40632 13.9407M22.2489 10.2123C22.2489 12.9749 24.5497 15.2144 27.3878 15.2144C28.704 15.2144 29.9046 14.7328 30.8137 13.9407M22.2489 10.2123V8.54496M22.2489 10.2123C22.2489 12.9749 19.9482 15.2144 17.11 15.2144C14.2719 15.2144 11.9711 12.9749 11.9711 10.2123M11.9711 10.2123C11.9711 12.9749 9.67038 15.2144 6.83225 15.2144C5.51609 15.2144 4.31549 14.7328 3.40632 13.9407M11.9711 10.2123V8.54496M20.5359 29.3755L20.5359 24.3734C20.536 22.5317 19.0021 21.0386 17.11 21.0386C15.2179 21.0386 13.6841 22.5317 13.6841 24.3734L13.6841 29.3755M3.40632 13.9407V29.3755H30.8137V13.9407" stroke="white" stroke-width="2.5"/>
</svg>
