<svg width="51" height="45" viewBox="0 0 51 45" fill="none" xmlns="http://www.w3.org/2000/svg">
<path fill-rule="evenodd" clip-rule="evenodd" d="M5.83366 0.375V39.7083H0.916992V44.625H50.0837V39.7083H45.167V0.375H5.83366ZM17.1253 11.6667H18.1253H20.5837H21.5837V13.6667H20.5837H18.1253H17.1253V11.6667ZM30.417 11.6667H29.417V13.6667H30.417H32.8753H33.8753V11.6667H32.8753H30.417ZM17.1253 21.5H18.1253H20.5837H21.5837V23.5H20.5837H18.1253H17.1253V21.5ZM30.417 21.5H29.417V23.5H30.417H32.8753H33.8753V21.5H32.8753H30.417ZM17.1253 31.3333H18.1253H20.5837H21.5837V33.3333H20.5837H18.1253H17.1253V31.3333ZM30.417 31.3333H29.417V33.3333H30.417H32.8753H33.8753V31.3333H32.8753H30.417Z" fill="#76A62E"/>
</svg>
