<svg width="42" height="42" viewBox="0 0 42 42" fill="none" xmlns="http://www.w3.org/2000/svg">
<path d="M21.2581 0.205566C9.91795 0.205566 0.639648 9.46325 0.639648 20.8653C0.639648 31.1745 8.186 39.7311 18.0416 41.2775V26.8446H12.8045V20.8653H18.0416V16.3086C18.0416 11.1333 21.1138 8.288 25.8354 8.288C28.0828 8.288 30.4333 8.67975 30.4333 8.67975V13.7725H27.8354C25.2787 13.7725 24.4746 15.3601 24.4746 16.989V20.8653H30.2065L29.2787 26.8446H24.4746V41.2775C29.3332 40.5102 33.7574 38.0312 36.9486 34.288C40.1398 30.5448 41.8876 25.7841 41.8765 20.8653C41.8765 9.46325 32.5982 0.205566 21.2581 0.205566Z" fill="#224D20"/>
</svg>
