<svg width="59" height="59" viewBox="0 0 59 59" fill="none" xmlns="http://www.w3.org/2000/svg">
<path fill-rule="evenodd" clip-rule="evenodd" d="M54.0833 29.5C54.0833 43.077 43.077 54.0834 29.5 54.0834C15.923 54.0834 4.91666 43.077 4.91666 29.5C4.91666 15.923 15.923 4.91669 29.5 4.91669C43.077 4.91669 54.0833 15.923 54.0833 29.5ZM36.8798 41.7917L39.3381 36.8751L32.091 32.0051L27.3144 31.7003L24.5881 34.4167L29.5048 41.7917H36.8798ZM22.1403 22.1372L19.6697 27.0416L11.7323 21.0557C14.8919 14.4198 21.6598 9.83335 29.4989 9.83335C31.148 9.83335 32.7496 10.0363 34.2803 10.4186L31.9613 19.6666L22.1403 22.1372Z" fill="#224D20"/>
</svg>
