<svg width="42" height="42" viewBox="0 0 42 42" fill="none" xmlns="http://www.w3.org/2000/svg">
<path d="M12.5437 0.123047H29.8632C36.4611 0.123047 41.8219 5.48384 41.8219 12.0817V29.4012C41.8219 32.5729 40.5619 35.6146 38.3192 37.8573C36.0765 40.1 33.0348 41.3599 29.8632 41.3599H12.5437C5.94576 41.3599 0.584961 35.9992 0.584961 29.4012V12.0817C0.584961 8.9101 1.84489 5.86836 4.08758 3.62567C6.33028 1.38298 9.37202 0.123047 12.5437 0.123047ZM12.1313 4.24674C10.1627 4.24674 8.27471 5.02876 6.88269 6.42078C5.49068 7.81279 4.70865 9.70077 4.70865 11.6694V29.8136C4.70865 33.9167 8.02822 37.2363 12.1313 37.2363H30.2755C32.2441 37.2363 34.1321 36.4542 35.5241 35.0622C36.9161 33.6702 37.6982 31.7822 37.6982 29.8136V11.6694C37.6982 7.56631 34.3786 4.24674 30.2755 4.24674H12.1313ZM32.0281 7.3395C32.7116 7.3395 33.3672 7.61104 33.8505 8.09438C34.3339 8.57772 34.6054 9.23327 34.6054 9.91681C34.6054 10.6004 34.3339 11.2559 33.8505 11.7392C33.3672 12.2226 32.7116 12.4941 32.0281 12.4941C31.3446 12.4941 30.689 12.2226 30.2057 11.7392C29.7223 11.2559 29.4508 10.6004 29.4508 9.91681C29.4508 9.23327 29.7223 8.57772 30.2057 8.09438C30.689 7.61104 31.3446 7.3395 32.0281 7.3395ZM21.2034 10.4323C23.9376 10.4323 26.5598 11.5184 28.4931 13.4518C30.4265 15.3851 31.5126 18.0073 31.5126 20.7415C31.5126 23.4757 30.4265 26.0979 28.4931 28.0312C26.5598 29.9646 23.9376 31.0507 21.2034 31.0507C18.4692 31.0507 15.847 29.9646 13.9137 28.0312C11.9803 26.0979 10.8942 23.4757 10.8942 20.7415C10.8942 18.0073 11.9803 15.3851 13.9137 13.4518C15.847 11.5184 18.4692 10.4323 21.2034 10.4323ZM21.2034 14.556C19.5629 14.556 17.9896 15.2077 16.8296 16.3677C15.6696 17.5277 15.0179 19.101 15.0179 20.7415C15.0179 22.382 15.6696 23.9553 16.8296 25.1153C17.9896 26.2753 19.5629 26.927 21.2034 26.927C22.8439 26.927 24.4172 26.2753 25.5772 25.1153C26.7373 23.9553 27.3889 22.382 27.3889 20.7415C27.3889 19.101 26.7373 17.5277 25.5772 16.3677C24.4172 15.2077 22.8439 14.556 21.2034 14.556Z" fill="#224D20"/>
</svg>
