<svg width="38" height="38" viewBox="0 0 38 38" fill="none" xmlns="http://www.w3.org/2000/svg">
<path d="M33.1624 0.185547C34.256 0.185547 35.3049 0.620006 36.0783 1.39335C36.8516 2.16669 37.2861 3.21557 37.2861 4.30924V33.1751C37.2861 34.2687 36.8516 35.3176 36.0783 36.091C35.3049 36.8643 34.256 37.2988 33.1624 37.2988H4.29654C3.20287 37.2988 2.15399 36.8643 1.38065 36.091C0.60731 35.3176 0.172852 34.2687 0.172852 33.1751V4.30924C0.172852 3.21557 0.60731 2.16669 1.38065 1.39335C2.15399 0.620006 3.20287 0.185547 4.29654 0.185547H33.1624ZM32.1314 32.1441V21.2164C32.1314 19.4337 31.4233 17.724 30.1627 16.4635C28.9022 15.2029 27.1925 14.4947 25.4098 14.4947C23.6573 14.4947 21.616 15.5669 20.6264 17.1751V14.8865H14.8738V32.1441H20.6264V21.9792C20.6264 20.3916 21.9047 19.0927 23.4923 19.0927C24.2579 19.0927 24.9921 19.3968 25.5334 19.9381C26.0748 20.4795 26.3789 21.2137 26.3789 21.9792V32.1441H32.1314ZM8.17281 11.6494C9.09149 11.6494 9.97255 11.2845 10.6222 10.6349C11.2718 9.98524 11.6367 9.10419 11.6367 8.1855C11.6367 6.26799 10.0903 4.70099 8.17281 4.70099C7.24866 4.70099 6.36236 5.0681 5.70888 5.72158C5.05541 6.37505 4.68829 7.26135 4.68829 8.1855C4.68829 10.103 6.25529 11.6494 8.17281 11.6494ZM11.0388 32.1441V14.8865H5.32746V32.1441H11.0388Z" fill="#224D20"/>
</svg>
