<svg width="59" height="60" viewBox="0 0 59 60" fill="none" xmlns="http://www.w3.org/2000/svg">
<path d="M24.1115 22.1809C23.6209 20.781 23.3542 19.2758 23.3542 17.7083C23.3542 11.6636 27.3207 6.54546 32.7928 4.81457C31.1756 3.64656 29.189 2.95825 27.0417 2.95825C21.6109 2.95825 17.2083 7.36079 17.2083 12.7916C17.2083 17.2019 20.1117 20.934 24.1115 22.1809Z" fill="#224D20"/>
<path d="M36.875 7.87492C35.6004 7.87492 34.3767 8.11869 33.2524 8.56442C29.6185 10.005 27.0417 13.5527 27.0417 17.7083C27.0417 18.6004 27.1611 19.4686 27.3863 20.2958C28.5225 24.4695 32.3368 27.5416 36.875 27.5416C42.3058 27.5416 46.7083 23.1391 46.7083 17.7083C46.7083 12.2775 42.3058 7.87492 36.875 7.87492Z" fill="#224D20"/>
<path fill-rule="evenodd" clip-rule="evenodd" d="M19.6667 32.5829V29.9999H4.91666V54.5833H19.6667V52.1249H21.6812C21.8445 52.1847 22.0493 52.2586 22.2892 52.3431C22.929 52.5683 23.8243 52.8704 24.8506 53.1792C26.8476 53.7802 29.5471 54.4712 31.8414 54.5805C41.5096 55.0409 49.0952 50.4957 55.0295 43.9695C57.1942 41.5888 57.0766 38.1031 55.2002 35.7576C52.7169 32.6535 48.262 32.5618 45.4143 34.8218C45.3483 34.8741 45.2819 34.9265 45.2152 34.9787C44.9221 34.1851 44.4394 33.473 43.8373 32.8708C41.7679 30.8015 38.116 29.767 33.6643 29.8079C29.8554 29.8428 25.1624 30.6597 19.6667 32.5829ZM19.6667 37.8175V47.2083H22.5831L23.0097 47.373L23.0202 47.377L23.0626 47.3931C23.1014 47.4078 23.1611 47.4303 23.2396 47.4594C23.3967 47.5176 23.6291 47.6024 23.9216 47.7053C24.5079 47.9117 25.3295 48.1889 26.2674 48.4711C28.1985 49.0522 30.4157 49.5903 32.0753 49.6694C39.843 50.0393 46.1079 46.4729 51.3918 40.6618C51.789 40.225 51.8634 39.4571 51.3609 38.8291C50.7775 38.0998 49.4683 37.8813 48.4707 38.673C46.2971 40.3981 43.1654 42.5511 39.9901 43.4314C38.2218 43.9216 36.4795 44.2332 35.0974 44.4287C34.1854 44.569 33.2212 44.6731 32.2078 44.739L32.1539 44.7426L32.1134 44.7451L32.1011 44.7458L32.0969 44.746C32.0969 44.746 32.0941 44.7462 31.9583 42.2916L32.0941 44.7462L31.805 39.838C31.8403 39.8358 31.8756 39.8336 31.9107 39.8313L31.9513 39.8286C32.0461 39.8219 32.1902 39.811 32.3767 39.7948C32.75 39.7622 33.2904 39.7083 33.9421 39.6238C34.092 39.6044 34.2472 39.5834 34.4071 39.5607C37.4686 39.0827 39.2653 38.1947 40.1017 37.4361C40.346 37.2145 40.4762 37.0332 40.5422 36.9126C40.6057 36.7968 40.6104 36.7373 40.611 36.7283C40.6114 36.7225 40.6135 36.7063 40.5948 36.6619C40.5735 36.6111 40.514 36.5008 40.3606 36.3474C39.6644 35.6512 37.6314 34.6883 33.7094 34.7243C30.2061 34.7565 25.5018 35.5934 19.6667 37.8175Z" fill="#224D20"/>
</svg>
