<svg width="39" height="45" viewBox="0 0 39 45" fill="none" xmlns="http://www.w3.org/2000/svg">
<path d="M13.9993 34V36C13.9993 38.5773 16.0887 40.6667 18.666 40.6667C21.2433 40.6667 23.3327 38.5773 23.3327 36V34M13.9993 34V33.65C13.9993 33.1558 13.7218 32.7083 13.3049 32.443C10.5162 30.6685 8.66602 27.5503 8.66602 24C8.66602 18.4772 13.1432 14 18.666 14C24.1889 14 28.666 18.4772 28.666 24C28.666 27.5503 26.8159 30.6685 24.0271 32.443C23.6102 32.7083 23.3327 33.1558 23.3327 33.65V34M13.9993 34H23.3327" stroke="#F8FAF4" stroke-width="1.33333" stroke-linecap="square" stroke-linejoin="round"/>
<line x1="38.9082" y1="20.1254" x2="34.2123" y2="20.1254" stroke="white" stroke-width="1.34169"/>
<line y1="-0.670847" x2="4.69593" y2="-0.670847" transform="matrix(1 0 0 -1 0 19.4546)" stroke="white" stroke-width="1.34169"/>
<line x1="35.8266" y1="8.38987" x2="33.4496" y2="12.4397" stroke="white" stroke-width="1.34169"/>
<line y1="-0.670847" x2="4.69593" y2="-0.670847" transform="matrix(0.506192 0.862421 0.862421 -0.506192 3.66211 8.05029)" stroke="white" stroke-width="1.34169"/>
<line x1="20.124" x2="20.124" y2="4.69593" stroke="white" stroke-width="1.34169"/>
<line x1="28.629" y1="2.84746" x2="27.482" y2="7.40114" stroke="white" stroke-width="1.34169"/>
<line y1="-0.670847" x2="4.69593" y2="-0.670847" transform="matrix(0.244267 0.969708 0.969708 -0.244267 10.9297 2.68359)" stroke="white" stroke-width="1.34169"/>
</svg>
