<svg width="32" height="32" viewBox="0 0 32 32" fill="none" xmlns="http://www.w3.org/2000/svg">
<path d="M16.0007 27.6003C17.007 28.274 18.2172 28.6668 19.5192 28.6668C22.4118 28.6668 24.8516 26.7275 25.6092 24.0782C27.4035 23.3424 28.6673 21.5781 28.6673 19.5187C28.6673 18.1403 28.1012 16.8942 27.1888 16.0002C28.1012 15.1061 28.6673 13.86 28.6673 12.4816C28.6673 9.94143 26.7445 7.8503 24.275 7.58429C23.6601 5.14171 21.4489 3.3335 18.8155 3.3335C17.7901 3.3335 16.8287 3.60764 16.0007 4.08664M16.0007 27.6003C14.9943 28.274 13.7841 28.6668 12.4821 28.6668C9.58946 28.6668 7.14974 26.7275 6.39215 24.0782C4.59779 23.3424 3.33398 21.5781 3.33398 19.5187C3.33398 18.1403 3.90009 16.8942 4.81248 16.0002C3.90009 15.1061 3.33398 13.86 3.33398 12.4816C3.33398 9.94143 5.25676 7.8503 7.72629 7.58429C8.34125 5.14171 10.5524 3.3335 13.1858 3.3335C14.2112 3.3335 15.1726 3.60764 16.0007 4.08664M16.0007 27.6003L16.0007 4.08664M21.334 14.0002C18.3885 14.0002 16.0007 11.6123 16.0007 8.66683M10.6673 18.0002C13.6128 18.0002 16.0007 20.388 16.0007 23.3335" stroke="#F8FAF4" stroke-width="1.33333" stroke-linecap="round" stroke-linejoin="round"/>
</svg>
