<svg width="29" height="29" viewBox="0 0 29 29" fill="none" xmlns="http://www.w3.org/2000/svg">
<path d="M6.66732 26.2015H9.73906C9.73906 26.2015 13.0894 27.5386 15.3424 27.6495C20.3102 27.894 24.2565 25.5051 27.4528 21.8716C28.1827 21.0418 28.1704 19.7891 27.4926 18.9134C26.6189 17.7844 24.9766 17.693 23.881 18.5918C22.6738 19.5821 21.0716 20.696 19.545 21.1334C17.4363 21.7377 15.3424 21.8574 15.3424 21.8574C26.5492 21.1334 22.0766 13.1961 6.66732 17.4314M16.8081 4.02037C16.1742 2.25843 14.5027 1 12.5403 1C10.0331 1 8.00065 3.05422 8.00065 5.58824C8.00065 8.12225 10.0331 10.1765 12.5403 10.1765C12.9993 10.1765 13.4423 10.1076 13.8599 9.97963M16.8081 4.02037C14.9444 4.59167 13.588 6.34161 13.588 8.41176C13.588 8.96243 13.6839 9.49044 13.8599 9.97963M16.8081 4.02037C17.2256 3.89236 17.6687 3.82353 18.1276 3.82353C20.6348 3.82353 22.6673 5.87775 22.6673 8.41176C22.6673 10.9458 20.6348 13 18.1276 13C16.1653 13 14.4937 11.7416 13.8599 9.97963M1.33398 15.6667H6.66732V27.6667H1.33398V15.6667Z" stroke="#F8FAF4" stroke-linecap="round" stroke-linejoin="round"/>
</svg>
