<svg width="51" height="51" viewBox="0 0 51 51" fill="none" xmlns="http://www.w3.org/2000/svg">
<path fill-rule="evenodd" clip-rule="evenodd" d="M8.29199 0.916656H42.7087V5.83332H50.0837V13.2083C50.0837 18.3636 46.1165 22.5923 41.0685 23.0081C38.6492 28.1295 33.7773 31.8651 27.9683 32.6993V35.3333H40.2503V50.0833H10.7503V35.3333H23.0516V32.7021C17.2341 31.8733 12.3541 28.1351 9.93211 23.0081C4.88413 22.5923 0.916992 18.3636 0.916992 13.2083V5.83332H8.29199V0.916656ZM8.29199 10.75H5.83366V13.2083C5.83366 15.0687 6.86695 16.6878 8.39095 17.523C8.32554 16.9132 8.29199 16.2938 8.29199 15.6667V10.75ZM42.7087 10.75V15.6667C42.7087 16.2938 42.6751 16.9132 42.6097 17.523C44.1337 16.6878 45.167 15.0687 45.167 13.2083V10.75H42.7087Z" fill="#BA5757"/>
</svg>
