<svg width="59" height="59" viewBox="0 0 59 59" fill="none" xmlns="http://www.w3.org/2000/svg">
<path d="M36.8695 48.9938C35.9904 36.5231 28.1993 29.5 19.6672 29.5C11.1351 29.5 3.34404 36.5231 2.46496 48.9938L2.27948 51.625H37.0549L36.8695 48.9938Z" fill="#224D20"/>
<path d="M41.8104 49.1667L41.7738 48.6481C41.2725 41.5359 38.7361 35.5941 34.8972 31.394C37.0008 30.1491 39.3611 29.5 41.7989 29.5C49.3352 29.5 56.1304 35.7036 56.894 46.5355L57.0795 49.1667H41.8104Z" fill="#224D20"/>
<path d="M19.6667 7.375C14.2359 7.375 9.83333 11.7775 9.83333 17.2083C9.83333 22.6391 14.2359 27.0417 19.6667 27.0417C25.0975 27.0417 29.5 22.6391 29.5 17.2083C29.5 11.7775 25.0975 7.375 19.6667 7.375Z" fill="#224D20"/>
<path d="M41.7917 9.83333C37.0397 9.83333 33.1875 13.6855 33.1875 18.4375C33.1875 23.1895 37.0397 27.0417 41.7917 27.0417C46.5436 27.0417 50.3958 23.1895 50.3958 18.4375C50.3958 13.6855 46.5436 9.83333 41.7917 9.83333Z" fill="#224D20"/>
</svg>
