<svg width="59" height="60" viewBox="0 0 59 60" fill="none" xmlns="http://www.w3.org/2000/svg">
<path d="M17.3137 42.2917C20.4607 45.3274 24.7999 47.2083 29.5 47.2083C39.0039 47.2083 46.7083 39.5039 46.7083 30C46.7083 29.2694 46.6629 28.5505 46.5751 27.8459L51.454 27.2375C51.5669 28.1435 51.625 29.0655 51.625 30C51.625 42.2193 41.7193 52.125 29.5 52.125C23.9067 52.125 18.7049 50.0466 14.75 46.6083V52.125H9.83333V37.375H24.5833V42.2917H17.3137Z" fill="#224D20"/>
<path d="M12.2917 30C12.2917 30.7306 12.3371 31.4495 12.4249 32.1541L7.54605 32.7625C7.43307 31.8565 7.375 30.9345 7.375 30C7.375 17.7807 17.2807 7.875 29.5 7.875C35.1069 7.875 40.3204 9.96346 44.2788 13.4168V7.875H49.1955V22.625H34.4455V17.7083H41.6863C38.5393 14.6726 34.2001 12.7917 29.5 12.7917C19.9961 12.7917 12.2917 20.4961 12.2917 30Z" fill="#224D20"/>
</svg>
