<svg width="59" height="60" viewBox="0 0 59 60" fill="none" xmlns="http://www.w3.org/2000/svg">
<path fill-rule="evenodd" clip-rule="evenodd" d="M46.1877 13.3123C36.9714 4.09591 22.0287 4.09591 12.8123 13.3123C3.59592 22.5286 3.5959 37.4713 12.8123 46.6877C22.0286 55.9041 36.9713 55.9041 46.1877 46.6877C55.4041 37.4714 55.4041 22.5287 46.1877 13.3123ZM8.64037 9.14036C20.1608 -2.38012 38.8392 -2.38012 50.3596 9.14037C61.8801 20.6608 61.8801 39.3392 50.3596 50.8596C38.8392 62.3801 20.1608 62.3801 8.64036 50.8596C-2.88012 39.3392 -2.88012 20.6608 8.64037 9.14036ZM21.1562 34.172L23.2421 36.2579C26.6983 39.7141 32.3018 39.7141 35.7579 36.2579L37.8439 34.172L42.0158 38.3439L39.9299 40.4299C34.1696 46.1901 24.8304 46.1901 19.0702 40.4299L16.9842 38.3439L21.1562 34.172Z" fill="#224D20"/>
<path d="M25.075 22.625C25.075 25.0689 23.4241 27.05 21.3875 27.05C19.351 27.05 17.7 25.0689 17.7 22.625C17.7 20.1812 19.351 18.2 21.3875 18.2C23.4241 18.2 25.075 20.1812 25.075 22.625Z" fill="#224D20"/>
<path d="M41.3 22.625C41.3 25.0689 39.6491 27.05 37.6125 27.05C35.576 27.05 33.925 25.0689 33.925 22.625C33.925 20.1812 35.576 18.2 37.6125 18.2C39.6491 18.2 41.3 20.1812 41.3 22.625Z" fill="#224D20"/>
</svg>
