<svg width="172" height="60" viewBox="0 0 172 60" fill="none" xmlns="http://www.w3.org/2000/svg">
<g clip-path="url(#clip0_4519_1084)">
<path d="M29.7074 0.580933C23.9043 0.580933 18.2719 2.28773 13.4928 5.53064C8.71381 8.77355 4.95886 13.3819 2.74002 18.673C0.521192 24.1347 0.00915331 29.9378 1.03323 35.7409C2.05731 41.544 4.78818 46.6644 8.88449 50.7607C12.9808 54.857 18.2719 57.7585 23.9043 58.7826C29.5367 59.9774 35.5105 59.2947 40.8015 57.0758C46.0926 54.857 50.7009 51.102 53.9439 46.1523C57.1868 41.3733 58.8936 35.5702 58.8936 29.7671C58.8936 21.9159 55.8213 14.406 50.3596 8.94422C44.8978 3.65316 37.388 0.580933 29.7074 0.580933ZM2.39867 31.1325H11.4447C11.4447 35.2289 12.1274 39.3252 13.3222 43.2508H5.81225C3.7641 39.4958 2.56935 35.2289 2.39867 31.1325ZM30.7315 14.7473V2.79977C35.8518 3.3118 40.2895 7.92015 43.0204 14.7473H30.7315ZM43.7031 16.7955C44.8978 20.7211 45.5806 24.8174 45.7512 28.9137H30.7315V16.7955H43.7031ZM28.5126 2.79977V14.7473H16.2237C18.9546 7.92015 23.5629 3.3118 28.5126 2.79977ZM28.5126 16.7955V28.9137H13.4928C13.4928 24.8174 14.1755 20.7211 15.541 16.7955H28.5126ZM11.4447 28.9137H2.39867C2.56935 24.6467 3.7641 20.5504 5.81225 16.7955H13.3222C12.1274 20.7211 11.6154 24.8174 11.4447 28.9137ZM13.4928 31.1325H28.5126V43.2508H15.541C14.3462 39.3252 13.6635 35.2289 13.4928 31.1325ZM28.5126 45.2989V57.2465C23.3922 56.7345 18.9546 52.1261 16.2237 45.2989H28.5126ZM30.7315 57.2465V45.1283H43.0204C40.2895 52.1261 35.8518 56.7345 30.7315 57.2465ZM30.7315 43.0801V30.9619H45.7512C45.7512 35.0582 45.0685 39.1545 43.7031 43.0801H30.7315ZM47.7994 31.1325H56.8454C56.6747 35.3995 55.48 39.4958 53.4318 43.2508H45.9219C47.1167 39.1545 47.7994 35.2289 47.7994 31.1325ZM47.7994 28.9137C47.7994 24.8174 47.1167 20.7211 45.9219 16.7955H53.4318C55.48 20.5504 56.6747 24.6467 56.8454 28.9137H47.7994ZM52.2371 14.7473H45.2392C44.5565 12.8699 43.7031 11.1631 42.679 9.45626C41.4843 7.40811 40.1188 5.70132 38.412 4.1652C44.0444 6.04267 48.8235 9.79762 52.2371 14.7473ZM20.832 4.1652C19.2959 5.70132 17.7598 7.40811 16.5651 9.45626C15.541 11.1631 14.6876 12.8699 14.0049 14.7473H7.00701C10.4206 9.79762 15.1996 6.04267 20.832 4.1652ZM7.00701 45.2989H14.0049C14.6876 47.1764 15.541 48.8832 16.5651 50.59C17.7598 52.4675 19.1253 54.345 20.832 55.8811C15.1996 54.0036 10.4206 50.2486 7.00701 45.2989ZM38.412 55.8811C40.1188 54.345 41.4843 52.6382 42.679 50.59C43.7031 48.8832 44.5565 47.0057 45.2392 45.2989H52.2371C48.8235 50.2486 44.0444 54.0036 38.412 55.8811ZM139.454 21.5745H134.675V47.8591H139.454V21.5745ZM137.065 17.9902C138.772 17.9902 140.308 16.6248 140.308 14.7473C140.308 12.8699 138.942 11.5044 137.065 11.5044C135.358 11.5044 133.822 12.8699 133.822 14.7473C133.822 16.6248 135.358 17.9902 137.065 17.9902ZM149.183 28.5724H156.181V24.4761H149.183V20.7211C149.183 17.9902 151.06 16.4541 154.303 16.4541H156.181V11.6751H154.303C148.159 11.6751 144.404 15.0887 144.404 20.5504V48.0298H149.183V28.5724ZM169.152 48.0298H171.03V43.2508H169.152C165.91 43.2508 164.032 41.7147 164.032 38.9838V28.5724H171.03V24.4761H164.032V11.6751H159.253V39.1545C159.253 44.4455 163.008 47.8591 169.152 48.0298ZM108.732 48.0298L113.511 28.4017L118.29 48.0298H123.752L131.091 21.7452H126.141L121.021 41.8854L116.071 21.7452H110.78L105.83 41.8854L100.71 21.7452H95.931L103.27 48.0298H108.732ZM82.7887 43.5921C78.6924 43.5921 75.2788 41.032 74.084 38.4718L69.6464 40.8613C71.6945 45.4696 76.8149 48.5419 82.618 48.5419C90.1279 48.5419 95.419 44.2749 95.419 38.1304C95.419 23.964 75.4495 29.9378 75.4495 21.7452C75.4495 18.1609 78.5217 16.4541 82.7887 16.4541C86.2023 16.4541 89.2745 18.3316 91.152 20.7211L94.9069 17.4782C92.3467 13.8939 87.7384 11.8458 82.7887 11.8458C75.1081 11.8458 70.3291 16.6248 70.3291 21.7452C70.3291 35.5702 90.4693 28.743 90.4693 38.3011C90.4693 41.3733 87.397 43.5921 82.7887 43.5921Z" fill="#333D3E"/>
</g>
<defs>
<clipPath id="clip0_4519_1084">
<rect width="170.679" height="58.8844" fill="white" transform="translate(0.347656 0.580933)"/>
</clipPath>
</defs>
</svg>
