<svg width="43" height="44" viewBox="0 0 43 44" fill="none" xmlns="http://www.w3.org/2000/svg">
<path d="M6.0593 0.0927734C2.71722 0.0927734 0 2.8666 0 6.27831V37.206C0 40.6177 2.71722 43.3915 6.0593 43.3915H36.3558C39.6979 43.3915 42.4151 40.6177 42.4151 37.206V6.27831C42.4151 2.8666 39.6979 0.0927734 36.3558 0.0927734H6.0593ZM34.1877 8.21129L24.3603 19.6739L35.9203 35.273H26.8692L19.7874 25.8111L11.6736 35.273H7.17648L17.6856 23.0082L6.59896 8.21129H15.8773L22.2869 16.8614L29.6906 8.21129H34.1877ZM30.6089 32.5282L14.5234 10.8111H11.844L28.1095 32.5282H30.5995H30.6089Z" fill="#224D20"/>
</svg>
